<svg id="svg" version="1.1" xmlns="http://www.w3.org/2000/svg" xmlns:xlink="http://www.w3.org/1999/xlink" width="400" height="400" viewBox="0, 0, 400,400"><g id="svgg"><path id="path0" d="M136.415 160.772 C 136.142 161.282,136.000 169.503,136.000 184.774 L 136.000 208.000 124.200 208.000 L 112.400 208.000 112.400 231.800 L 112.400 255.600 123.567 255.600 C 129.709 255.600,135.019 255.709,135.367 255.843 C 135.924 256.056,136.000 257.449,136.000 267.366 C 136.000 275.762,136.128 278.821,136.500 279.326 C 136.967 279.961,140.898 279.999,196.200 279.903 L 255.400 279.800 255.600 268.133 C 255.710 261.716,255.950 256.316,256.133 256.133 C 256.316 255.950,261.716 255.710,268.133 255.600 L 279.800 255.400 279.911 232.600 C 279.971 220.060,279.924 209.398,279.804 208.906 L 279.588 208.012 267.694 207.906 L 255.800 207.800 255.600 184.000 L 255.400 160.200 196.115 160.099 C 137.822 159.999,136.823 160.010,136.415 160.772 M176.000 204.000 L 176.000 216.000 164.000 216.000 L 152.000 216.000 152.000 204.000 L 152.000 192.000 164.000 192.000 L 176.000 192.000 176.000 204.000 M240.000 204.000 L 240.000 216.000 228.043 216.000 C 217.508 216.000,216.057 215.925,215.843 215.367 C 215.511 214.502,215.533 192.600,215.867 192.267 C 216.013 192.120,221.503 192.000,228.067 192.000 L 240.000 192.000 240.000 204.000 M184.315 243.900 L 184.430 247.600 188.215 247.600 L 192.000 247.600 192.000 243.800 L 192.000 240.000 196.000 240.000 L 200.000 240.000 200.000 243.800 L 200.000 247.600 203.785 247.600 L 207.570 247.600 207.685 243.900 L 207.800 240.200 211.900 240.086 L 216.000 239.972 216.000 243.972 L 216.000 247.971 212.100 248.086 L 208.200 248.200 208.086 252.100 L 207.971 256.000 204.000 256.000 L 200.029 256.000 199.914 252.100 L 199.800 248.200 196.100 248.085 L 192.400 247.970 192.400 251.352 C 192.400 256.211,192.601 256.000,187.957 256.000 L 184.000 256.000 183.995 252.900 C 183.986 247.854,184.153 248.047,179.657 247.914 L 175.800 247.800 175.683 244.433 C 175.519 239.721,175.284 239.952,180.093 240.086 L 184.200 240.200 184.315 243.900 M136.267 304.667 C 136.120 304.813,136.000 310.031,136.000 316.261 L 136.000 327.588 147.900 327.694 L 159.800 327.800 160.000 351.600 L 160.200 375.400 196.097 375.502 L 231.994 375.604 232.097 351.702 L 232.200 327.800 243.900 327.694 L 255.600 327.588 255.600 315.994 L 255.600 304.400 196.067 304.400 C 163.323 304.400,136.413 304.520,136.267 304.667 " stroke="none" fill="#fcfbfb" fill-rule="evenodd"></path><path id="path1" d="M0.000 200.000 L 0.000 400.000 200.000 400.000 L 400.000 400.000 400.000 200.000 L 400.000 0.000 200.000 0.000 L 0.000 0.000 0.000 200.000 M375.200 200.000 L 375.200 375.200 316.000 375.200 L 256.800 375.200 256.800 352.200 L 256.800 329.200 280.800 329.200 L 304.800 329.200 304.800 316.200 L 304.800 303.200 280.800 303.200 L 256.800 303.200 256.800 292.200 L 256.800 281.200 268.520 281.200 C 277.102 281.200,280.369 281.071,280.720 280.720 C 281.071 280.369,281.200 277.102,281.200 268.520 L 281.200 256.800 293.003 256.800 L 304.806 256.800 304.703 232.100 L 304.600 207.400 292.900 207.294 L 281.200 207.188 281.200 183.565 C 281.200 163.626,281.111 159.854,280.629 159.371 C 280.160 158.902,277.973 158.800,268.429 158.800 L 256.800 158.800 256.800 147.000 L 256.800 135.200 249.000 135.200 L 241.200 135.200 241.200 111.408 L 241.200 87.615 240.300 87.396 C 239.805 87.275,234.000 87.226,227.400 87.288 L 215.400 87.400 215.297 111.300 L 215.194 135.200 196.000 135.200 L 176.806 135.200 176.703 111.300 L 176.600 87.400 164.600 87.288 C 158.000 87.226,152.195 87.275,151.700 87.396 L 150.800 87.615 150.800 111.408 L 150.800 135.200 143.000 135.200 L 135.200 135.200 135.200 147.000 L 135.200 158.800 123.480 158.800 C 114.898 158.800,111.631 158.929,111.280 159.280 C 110.917 159.643,110.800 165.563,110.800 183.474 L 110.800 207.188 99.100 207.294 L 87.400 207.400 87.400 232.000 L 87.400 256.600 99.100 256.706 L 110.800 256.812 110.800 268.373 C 110.800 274.732,110.909 280.219,111.043 280.567 C 111.257 281.125,112.708 281.200,123.243 281.200 L 135.200 281.200 135.200 292.197 L 135.200 303.194 111.300 303.297 L 87.400 303.400 87.288 315.400 C 87.226 322.000,87.275 327.805,87.396 328.300 L 87.615 329.200 111.408 329.200 L 135.200 329.200 135.200 352.200 L 135.200 375.200 80.000 375.200 L 24.800 375.200 24.800 200.000 L 24.800 24.800 200.000 24.800 L 375.200 24.800 375.200 200.000 M255.600 184.000 L 255.800 207.800 267.694 207.906 L 279.588 208.012 279.804 208.906 C 279.924 209.398,279.971 220.060,279.911 232.600 L 279.800 255.400 268.133 255.600 C 261.716 255.710,256.316 255.950,256.133 256.133 C 255.950 256.316,255.710 261.716,255.600 268.133 L 255.400 279.800 196.200 279.903 C 140.898 279.999,136.967 279.961,136.500 279.326 C 136.128 278.821,136.000 275.762,136.000 267.366 C 136.000 257.449,135.924 256.056,135.367 255.843 C 135.019 255.709,129.709 255.600,123.567 255.600 L 112.400 255.600 112.400 231.800 L 112.400 208.000 124.200 208.000 L 136.000 208.000 136.000 184.774 C 136.000 169.503,136.142 161.282,136.415 160.772 C 136.823 160.010,137.822 159.999,196.115 160.099 L 255.400 160.200 255.600 184.000 M152.000 204.000 L 152.000 216.000 164.000 216.000 L 176.000 216.000 176.000 204.000 L 176.000 192.000 164.000 192.000 L 152.000 192.000 152.000 204.000 M215.867 192.267 C 215.533 192.600,215.511 214.502,215.843 215.367 C 216.057 215.925,217.508 216.000,228.043 216.000 L 240.000 216.000 240.000 204.000 L 240.000 192.000 228.067 192.000 C 221.503 192.000,216.013 192.120,215.867 192.267 M175.776 240.519 C 175.660 240.820,175.618 242.582,175.683 244.433 L 175.800 247.800 179.657 247.914 C 184.153 248.047,183.986 247.854,183.995 252.900 L 184.000 256.000 187.957 256.000 C 192.601 256.000,192.400 256.211,192.400 251.352 L 192.400 247.970 196.100 248.085 L 199.800 248.200 199.914 252.100 L 200.029 256.000 204.000 256.000 L 207.971 256.000 208.086 252.100 L 208.200 248.200 212.100 248.086 L 216.000 247.971 216.000 243.972 L 216.000 239.972 211.900 240.086 L 207.800 240.200 207.685 243.900 L 207.570 247.600 203.785 247.600 L 200.000 247.600 200.000 243.800 L 200.000 240.000 196.000 240.000 L 192.000 240.000 192.000 243.800 L 192.000 247.600 188.215 247.600 L 184.430 247.600 184.315 243.900 L 184.200 240.200 180.093 240.086 C 176.906 239.997,175.939 240.095,175.776 240.519 M255.600 315.994 L 255.600 327.588 243.900 327.694 L 232.200 327.800 232.097 351.702 L 231.994 375.604 196.097 375.502 L 160.200 375.400 160.000 351.600 L 159.800 327.800 147.900 327.694 L 136.000 327.588 136.000 316.261 C 136.000 310.031,136.120 304.813,136.267 304.667 C 136.413 304.520,163.323 304.400,196.067 304.400 L 255.600 304.400 255.600 315.994 " stroke="none" fill="#000000" fill-rule="evenodd"></path></g></svg>